<svg xmlns="http://www.w3.org/2000/svg" viewBox="0 0 48 48" role="img" aria-label="Google">
  <path fill="#EA4335" d="M24 9.5c3.54 0 6.74 1.22 9.25 3.6l6.9-6.9C35.99 2.38 30.4 0 24 0 14.62 0 6.51 5.38 2.56 13.22l8.03 6.23C12.43 13.72 17.74 9.5 24 9.5z"/>
  <path fill="#4285F4" d="M46.98 24.55c0-1.57-.14-3.09-.4-4.55H24v9.02h12.94c-.56 2.96-2.23 5.48-4.75 7.18l7.68 5.96c4.48-4.13 7.11-10.22 7.11-17.61z"/>
  <path fill="#FBBC05" d="M10.59 28.09c-.48-1.43-.75-2.95-.75-4.54s.27-3.11.75-4.54l-8.03-6.23C.92 16.02 0 19.88 0 24s.92 7.98 2.56 11.22l8.03-6.23z"/>
  <path fill="#34A853" d="M24 48c6.4 0 11.77-2.11 15.7-5.75l-7.68-5.96c-2.13 1.43-4.86 2.29-8.02 2.29-6.26 0-11.57-4.22-13.47-9.95l-8.03 6.23C6.51 42.62 14.62 48 24 48z"/>
  <path fill="none" d="M0 0h48v48H0z"/>
</svg>
